<?xml version="1.0" encoding="iso-8859-1"?>
<!-- Uploaded to: SVG Repo, www.svgrepo.com, Generator: SVG Repo Mixer Tools -->
<!DOCTYPE svg PUBLIC "-//W3C//DTD SVG 1.1//EN" "http://www.w3.org/Graphics/SVG/1.1/DTD/svg11.dtd">
<svg fill="#000000" height="800px" width="800px" version="1.1" id="Capa_1" xmlns="http://www.w3.org/2000/svg" xmlns:xlink="http://www.w3.org/1999/xlink" 
	 viewBox="0 0 242.667 242.667" xml:space="preserve">
<path d="M121.333,73.82l45.276,28.895l-45.276,28.895l-45.049-28.895L121.333,73.82z M242.667,0v242.667H0V0H242.667z
	 M168.505,150.266L150.001,162.4l-28.667-21.156l-29.881,21.044l-17.291-10.921v12.853l46.414,30.336l47.93-29.122V150.266z
	 M166.609,102.715l30.715-25.482L152.958,48.11l-31.625,25.71l-30.26-25.71L45.342,76.778l30.942,25.937L48.3,125.467l43.456,28.44
	l29.577-22.297l29.122,22.297l44.366-29.577L166.609,102.715z"/>
</svg>